<svg xmlns="http://www.w3.org/2000/svg" viewBox="0 0 640 360" width="640" height="360">
  <defs>
    <linearGradient id="g46155" x1="0" y1="0" x2="1" y2="1">
      <stop offset="0" stop-color="#1A51A1"/><stop offset="1" stop-color="#0f3163"/>
    </linearGradient>
  </defs>
  <rect width="640" height="360" fill="url(#g46155)"/>
  <g transform="translate(320.0,136.0) scale(1.25)" fill="#ffffff" fill-opacity=".92"
     stroke="#ffffff" stroke-opacity=".92" stroke-linecap="round"><rect x="-50" y="-30" width="100" height="60" rx="8" fill="none" stroke-width="7"/><rect x="-44" y="-30" width="8" height="9" rx="2"/><rect x="-44" y="21" width="8" height="9" rx="2"/><rect x="-28" y="-30" width="8" height="9" rx="2"/><rect x="-28" y="21" width="8" height="9" rx="2"/><rect x="-12" y="-30" width="8" height="9" rx="2"/><rect x="-12" y="21" width="8" height="9" rx="2"/><rect x="4" y="-30" width="8" height="9" rx="2"/><rect x="4" y="21" width="8" height="9" rx="2"/><rect x="20" y="-30" width="8" height="9" rx="2"/><rect x="20" y="21" width="8" height="9" rx="2"/><rect x="36" y="-30" width="8" height="9" rx="2"/><rect x="36" y="21" width="8" height="9" rx="2"/></g>
  <text x="320.0" y="237.0" text-anchor="middle" fill="#ffffff" style="font-family:'Montserrat','Segoe UI',Arial,sans-serif;font-weight:800;font-size:24px;letter-spacing:.5px;">ACESSIBILIDADE NO</text><text x="320.0" y="265.0" text-anchor="middle" fill="#ffffff" style="font-family:'Montserrat','Segoe UI',Arial,sans-serif;font-weight:800;font-size:24px;letter-spacing:.5px;">AUDIOVISUAL</text>
  <g transform="translate(624,20)">
    <rect x="-150" y="0" width="150" height="24" rx="12" fill="#000000" fill-opacity=".22"/>
    <text x="-75" y="16" text-anchor="middle" fill="#ffffff"
      style="font-family:'Montserrat','Segoe UI',Arial,sans-serif;font-weight:700;font-size:11px;letter-spacing:1px;">FOTO ILUSTRATIVA</text>
  </g>
</svg>