<svg xmlns="http://www.w3.org/2000/svg" viewBox="0 0 640 360" width="640" height="360">
  <defs>
    <linearGradient id="g97693" x1="0" y1="0" x2="1" y2="1">
      <stop offset="0" stop-color="#d99e00"/><stop offset="1" stop-color="#b07f00"/>
    </linearGradient>
  </defs>
  <rect width="640" height="360" fill="url(#g97693)"/>
  <g transform="translate(320.0,136.0) scale(1.25)" fill="#ffffff" fill-opacity=".92"
     stroke="#ffffff" stroke-opacity=".92" stroke-linecap="round"><path d="M-44 -22 a26 30 0 0 0 36 44 a26 30 0 0 0 0 -52 a26 30 0 0 0 -36 8 Z" fill="none" stroke-width="6"/><circle cx="-30" cy="-6" r="4"/><circle cx="-14" cy="-6" r="4"/><path d="M44 -22 a26 30 0 0 1 -36 44 a26 30 0 0 1 0 -52 a26 30 0 0 1 36 8 Z" fill="none" stroke-width="6"/><circle cx="30" cy="-6" r="4"/><circle cx="14" cy="-6" r="4"/></g>
  <text x="320.0" y="250.0" text-anchor="middle" fill="#ffffff" style="font-family:'Montserrat','Segoe UI',Arial,sans-serif;font-weight:800;font-size:24px;letter-spacing:.5px;">TEATRO E DANCA DE SALAO</text>
  <g transform="translate(624,20)">
    <rect x="-150" y="0" width="150" height="24" rx="12" fill="#000000" fill-opacity=".22"/>
    <text x="-75" y="16" text-anchor="middle" fill="#ffffff"
      style="font-family:'Montserrat','Segoe UI',Arial,sans-serif;font-weight:700;font-size:11px;letter-spacing:1px;">FOTO ILUSTRATIVA</text>
  </g>
</svg>